PathFileType	4	(X/Y/Z)	pose_F01_0-65.trc
DataRate	CameraRate	NumFrames	NumMarkers	Units	OrigDataRate	OrigDataStartFrame	OrigNumFrames
30	30	5	21	m	30	32	65
Frame#	Time	CHip			RHip			RKnee			RAnkle			RBigToe			RSmallToe			RHeel			LHip			LKnee			LAnkle			LBigToe			LSmallToe			LHeel			Neck			Nose			RShoulder			RElbow			RWrist			LShoulder			LElbow			LWrist			
		X1	Y1	Z1	X2	Y2	Z2	X3	Y3	Z3	X4	Y4	Z4	X5	Y5	Z5	X6	Y6	Z6	X7	Y7	Z7	X8	Y8	Z8	X9	Y9	Z9	X10	Y10	Z10	X11	Y11	Z11	X12	Y12	Z12	X13	Y13	Z13	X14	Y14	Z14	X15	Y15	Z15	X16	Y16	Z16	X17	Y17	Z17	X18	Y18	Z18	X19	Y19	Z19	X20	Y20	Z20	X21	Y21	Z21	
32	1.0666666666666667	-0.2546072215894989	1.8288077994879426	-0.49799736656837257	-0.26648602120831066	1.8267661572627576	-0.4243395883836025	-0.34625823863930655	1.7408188767658686	-0.4494287470034754	-0.2852641586709868	1.5994259955851917	-0.3900052099100851	-0.5678911029948313	1.5532928402829176	-1.23825111304939	-0.5859414310925272	1.5603427942711092	-1.2203756500684597	-0.35100676133082404	1.6729085277491074	-0.30257986526033515	-0.24139496522899956	1.8233847420680185	-0.5637483254011557	-0.25668713384801267	1.6953142116718294	-0.5578740158024276	-0.24925833893091126	1.5949099292814861	-0.5322878514548496	-0.27640742116977174	1.552130797563316	-0.5395121042457303	-0.26286629951027013	1.5561037349733498	-0.560311955881133	-0.23508573687613976	1.5930562496706755	-0.5098958174263752	-0.2483599391890971	1.9840644092050361	-0.5102538051937843	-0.2594141233557232	2.0650531147398037	-0.5468454696064933	-0.2696558685617414	1.9867186782383448	-0.4188408024318896	-0.2826546957021981	1.9016183975974552	-0.3681283024349771	-0.28393357777335315	1.876004398869227	-0.4886292253277955	-0.22563334862708234	1.9854341608031645	-0.5979656482121987	-0.2123440696707021	1.9068573045025736	-0.6116474481617554	-0.2158055236349846	1.834304289228463	-0.6268822633283049
33	1.1	-0.25141757182042235	1.8300069104261885	-0.4882717029868758	-0.2638738927682669	1.8275005380571372	-0.4159740151148032	-0.34625823863930655	1.7408188767658686	-0.4494287470034754	-0.2852641586709868	1.5994259955851917	-0.3900052099100851	-0.5678911029948313	1.5532928402829176	-1.23825111304939	-0.5859414310925272	1.5603427942711092	-1.2203756500684597	-0.35100676133082404	1.6729085277491074	-0.30257986526033515	-0.2408843808498082	1.834183777007157	-0.5527553111616809	-0.25971588648408395	1.7143537639073352	-0.5694301240188636	-0.24671150632607333	1.5982795446997473	-0.536174826657702	-0.2737448520091029	1.5542640049688639	-0.5364434563398338	-0.26086486720801766	1.5576925574553515	-0.558260706965567	-0.2339494843155081	1.5934621377202718	-0.5184960993099147	-0.24958139721256925	1.9864252665566533	-0.5056339739687886	-0.26142641730527155	2.0661950527563135	-0.5444905703893042	-0.2736587025804285	1.986856019229039	-0.41481662279132814	-0.28338226108249376	1.9040776279774558	-0.3548400341968347	-0.2641113292643091	1.8627729127392263	-0.47389616080641256	-0.2247683057708306	1.98918140153361	-0.5953465446677274	-0.21159875105115042	1.9109504134538857	-0.6088576297516028	-0.21977247096922117	1.8401347297714037	-0.622997555542838
34	1.1333333333333333	-0.2504763435047382	1.8331937340199924	-0.48551400904122344	-0.26363928514978124	1.8303444058122695	-0.40780131737139674	-0.34625823863930655	1.7408188767658686	-0.4494287470034754	-0.2852641586709868	1.5994259955851917	-0.3900052099100851	-0.5678911029948313	1.5532928402829176	-1.23825111304939	-0.5859414310925272	1.5603427942711092	-1.2203756500684597	-0.35100676133082404	1.6729085277491074	-0.30257986526033515	-0.23587273498235184	1.8380967845477971	-0.5458658492214454	-0.2614243795622689	1.7243365147351655	-0.5729368927022516	-0.2313767850942149	1.6221263276099516	-0.5370657923668857	-0.25784571295173614	1.55806786112954	-0.5553098071524378	-0.23633909225234367	1.5862256512907642	-0.582124280427431	-0.22220831502331825	1.6192151374775485	-0.5243428922438298	-0.24946754982564356	1.9851912718014784	-0.5050358548961772	-0.26350688474236356	2.0629595364077606	-0.541981452216648	-0.27415842876210716	1.9854985038374158	-0.4086819944425226	-0.28204940259098865	1.9003110500672231	-0.3505174947913358	-0.28062907387211883	1.8548791623112508	-0.4322932429803459	-0.22457858834095415	1.989438526680337	-0.5948292548443942	-0.20907939907069661	1.915690116561429	-0.6119506537271674	-0.21419643117950005	1.8496648849280732	-0.6343137874505683
35	1.1666666666666667	-0.2493675078279684	1.8331597436817744	-0.48211292820235324	-0.26044139862850973	1.8305394926094134	-0.4066405417900122	-0.34625823863930655	1.7408188767658686	-0.4494287470034754	-0.2852641586709868	1.5994259955851917	-0.3900052099100851	-0.5678911029948313	1.5532928402829176	-1.23825111304939	-0.5859414310925272	1.5603427942711092	-1.2203756500684597	-0.35100676133082404	1.6729085277491074	-0.30257986526033515	-0.23470357818996018	1.8353270174496128	-0.542479065864411	-0.25292091450565357	1.7243037221469364	-0.5773552008914928	-0.21918489974339328	1.6318729640429679	-0.542784049427858	-0.2419465738943694	1.5618717172902161	-0.5741761579650418	-0.22401945095113052	1.589354861771271	-0.5974701331293737	-0.21202061786299137	1.6287408235494734	-0.5279745169245879	-0.2474427267556922	1.9838843355454396	-0.49839203811491983	-0.26266384241307356	2.0600040311503083	-0.5386454731274015	-0.27302278875654845	1.980321032561558	-0.40409930113629433	-0.28000225972602555	1.8955540689785875	-0.3519312615356808	-0.2827805545073435	1.8430137207738218	-0.4242110557652435	-0.22175564245656845	1.9893135653236733	-0.5854024607899664	-0.20382590726876007	1.920698207176979	-0.6138467038328108	-0.20816949896289721	1.8590031881913411	-0.6455729357943112
36	1.2	-0.24604849968476875	1.833807552742519	-0.489944564087058	-0.25753717408298454	1.8274151243550727	-0.4140254710418722	-0.34625823863930655	1.7408188767658686	-0.4494287470034754	-0.2852641586709868	1.5994259955851917	-0.3900052099100851	-0.5678911029948313	1.5532928402829176	-1.23825111304939	-0.5859414310925272	1.5603427942711092	-1.2203756500684597	-0.35100676133082404	1.6729085277491074	-0.30257986526033515	-0.22617416006794447	1.836858639783828	-0.5517105211634028	-0.2444174494490382	1.7242709295587073	-0.581773509080734	-0.20918479231469875	1.622238244614111	-0.5485808608866357	-0.22604743483700263	1.565675573450892	-0.5930425087776459	-0.2116998096499174	1.592484072251778	-0.6128159858313162	-0.2043271739127904	1.6149496024211742	-0.530648821841412	-0.24538259730608436	1.9836642825263815	-0.49197721436404	-0.26072806239251217	2.0588618139103096	-0.5409709428832253	-0.2702054432992602	1.977578221746033	-0.40259150611749384	-0.2747939953040377	1.8921381118974856	-0.3582686951864617	-0.2849320351425682	1.8311482792363927	-0.4161288685501411	-0.21897208628691983	1.990512596481018	-0.5765188726727608	-0.1990208784057616	1.9217299608082525	-0.6069418037742094	-0.20082664464174763	1.8704805956955157	-0.650582289792054
